<?xml version="1.0" encoding="UTF-8"?><svg id="_레이어_1" xmlns="http://www.w3.org/2000/svg" viewBox="0 0 150 150"><defs><style>.cls-1{fill:#8a909b;}</style></defs><path class="cls-1" d="M134.56,27.43h-5.06V6.07C129.51,2.72,126.79,0,123.44,0c0,0-.01,0-.02,0,0,0-.01,0-.02,0H34.17C21.87,0,7.77,12.13,7.77,28.9h-.01l-.5,95.2c0,14.3,11.59,25.89,25.89,25.89h93.45c8.92,0,16.15-7.23,16.15-16.15V35.62c0-4.52-3.67-8.19-8.19-8.19ZM104.81,92.66c0,3.46-2.8,6.26-6.26,6.26h-60.98c-3.46,0-6.26-2.8-6.26-6.26h0c0-3.46,2.8-6.26,6.26-6.26h60.98c3.46,0,6.26,2.8,6.26,6.26h0ZM31.31,65.59h0c0-3.46,2.8-6.26,6.26-6.26h46.18c3.46,0,6.26,2.8,6.26,6.26h0c0,3.46-2.8,6.26-6.26,6.26h-46.18c-3.46,0-6.26-2.8-6.26-6.26ZM117.36,27.43H34.04c-7.42,0-14.24.36-14.24-3.75s5.83-11.55,14.14-11.55h83.43v15.3Z"/></svg>