<?xml version="1.0" encoding="UTF-8"?><svg id="_레이어_1" xmlns="http://www.w3.org/2000/svg" viewBox="0 0 150 150"><defs><style>.cls-1{fill:#8a909b;}</style></defs><path class="cls-1" d="M17.31,7.5h35.17c5.41,0,9.81,4.39,9.81,9.81v35.17c0,5.41-4.39,9.81-9.81,9.81H17.31c-5.41,0-9.81-4.39-9.81-9.81V17.31c0-5.41,4.39-9.81,9.81-9.81Z"/><path class="cls-1" d="M97.53,7.5h35.17c5.41,0,9.81,4.39,9.81,9.81v35.17c0,5.41-4.39,9.81-9.81,9.81h-35.17c-5.41,0-9.81-4.39-9.81-9.81V17.31c0-5.41,4.39-9.81,9.81-9.81Z"/><path class="cls-1" d="M17.31,87.72h35.17c5.41,0,9.81,4.39,9.81,9.81v35.17c0,5.41-4.39,9.81-9.81,9.81H17.31c-5.41,0-9.81-4.39-9.81-9.81v-35.17c0-5.41,4.39-9.81,9.81-9.81Z"/><path class="cls-1" d="M97.53,87.72h35.17c5.41,0,9.81,4.39,9.81,9.81v35.17c0,5.41-4.39,9.81-9.81,9.81h-35.17c-5.41,0-9.81-4.39-9.81-9.81v-35.17c0-5.41,4.39-9.81,9.81-9.81Z"/></svg>