<svg width="110" height="110" viewBox="0 0 110 110" fill="none" xmlns="http://www.w3.org/2000/svg">
<path d="M98.8094 0H10.7295C4.90837 0 0.189453 4.71893 0.189453 10.54V98.62C0.189453 104.441 4.90837 109.16 10.7295 109.16H98.8094C104.631 109.16 109.349 104.441 109.349 98.62V10.54C109.349 4.71893 104.631 0 98.8094 0Z" fill="#F18D00"/>
<path opacity="0.9" d="M72.2295 66.3602C72.2295 67.7302 71.1195 68.8402 69.7495 68.8402H55.7895L51.5195 77.4402H66.5495C72.6595 77.4402 77.6295 72.4702 77.6295 66.3602V57.7402L72.2395 60.4203V66.3602H72.2295Z" fill="white"/>
<path opacity="0.9" d="M72.2305 20.1707V31.7207V40.3207V57.7507L77.6205 55.0707V40.3207V31.7207V16.9707L72.2305 20.1707Z" fill="white"/>
<path opacity="0.9" d="M77.6205 31.7207H72.2305H61.7505L57.4805 40.3207H72.2305H77.6205H88.1005L92.3705 31.7207H77.6205Z" fill="white"/>
<path opacity="0.9" d="M37.3004 42.8007C37.3004 41.4307 38.4104 40.3207 39.7804 40.3207H53.7404L58.0104 31.7207H42.9804C36.8704 31.7207 31.9004 36.6907 31.9004 42.8007V51.4207L37.2904 48.7407V42.8007H37.3004Z" fill="white"/>
<path opacity="0.9" d="M37.3002 88.9801V77.4301V68.8401V51.4102L31.9102 54.0901V68.8401V77.4301V92.1902L37.3002 88.9801Z" fill="white"/>
<path opacity="0.9" d="M31.9102 77.4298H37.3002H47.7802L52.0502 68.8398H37.3002H31.9102H21.4302L17.1602 77.4298H31.9102Z" fill="white"/>
</svg>
