<svg width="264" height="94" viewBox="0 0 264 94" fill="none" xmlns="http://www.w3.org/2000/svg">
<path d="M231.929 48.4988V28.5488H227.279V48.4988C227.279 54.9288 232.509 60.1588 238.939 60.1588V55.5089C235.069 55.5089 231.929 52.3588 231.929 48.4988Z" fill="white"/>
<path d="M155.149 34.0195C148.299 34.0195 142.719 39.5996 142.719 46.4496C142.719 53.2996 148.299 58.8795 155.149 58.8795C157.959 58.8795 160.719 57.9095 162.909 56.1595C164.409 54.9595 165.589 53.4496 166.389 51.7596H160.829C160.579 52.0296 160.309 52.2895 160.009 52.5295C158.619 53.6395 156.939 54.2296 155.149 54.2296C151.669 54.2296 148.709 51.9295 147.719 48.7695H167.339C167.479 48.0095 167.569 47.2396 167.569 46.4496C167.569 39.5996 161.989 34.0195 155.139 34.0195H155.149ZM147.719 44.1195C148.709 40.9595 151.669 38.6595 155.149 38.6595C158.629 38.6595 161.589 40.9595 162.579 44.1195H147.729H147.719Z" fill="white"/>
<path d="M183.328 34.0195C176.478 34.0195 170.898 39.5996 170.898 46.4496C170.898 53.2996 176.478 58.8795 183.328 58.8795C186.138 58.8795 188.898 57.9095 191.088 56.1595C192.588 54.9595 193.768 53.4496 194.568 51.7596H189.008C188.758 52.0296 188.488 52.2895 188.188 52.5295C186.798 53.6395 185.118 54.2296 183.328 54.2296C179.848 54.2296 176.888 51.9295 175.898 48.7695H195.518C195.658 48.0095 195.748 47.2396 195.748 46.4496C195.748 39.5996 190.168 34.0195 183.318 34.0195H183.328ZM175.908 44.1195C176.898 40.9595 179.858 38.6595 183.338 38.6595C186.818 38.6595 189.778 40.9595 190.768 44.1195H175.918H175.908Z" fill="white"/>
<path d="M261.368 48.7695H263.458C263.598 48.0095 263.688 47.2396 263.688 46.4496C263.688 39.5996 258.108 34.0195 251.258 34.0195C244.408 34.0195 238.828 39.5996 238.828 46.4496C238.828 53.2996 244.408 58.8795 251.258 58.8795C254.068 58.8795 256.828 57.9095 259.018 56.1595C260.518 54.9595 261.698 53.4496 262.498 51.7596H256.938C256.688 52.0296 256.418 52.2895 256.118 52.5295C254.728 53.6395 253.048 54.2296 251.258 54.2296C247.778 54.2296 244.818 51.9295 243.828 48.7695H261.358H261.368ZM251.268 38.6696C254.748 38.6696 257.708 40.9695 258.698 44.1295H243.848C244.838 40.9695 247.798 38.6696 251.278 38.6696H251.268Z" fill="white"/>
<path d="M134.739 49.0495C134.739 51.9095 132.409 54.2296 129.559 54.2296C126.709 54.2296 124.379 51.8995 124.379 49.0495V34.0195H119.729V49.0495C119.729 51.9095 117.399 54.2296 114.549 54.2296C111.699 54.2296 109.369 51.8995 109.369 49.0495V34.0195H104.719V49.0495C104.719 54.4695 109.129 58.8795 114.549 58.8795C117.559 58.8795 120.249 57.5195 122.059 55.3795C123.869 57.5195 126.559 58.8795 129.569 58.8795C134.989 58.8795 139.399 54.4695 139.399 49.0495V41.2095L134.749 43.8295V49.0595L134.739 49.0495Z" fill="white"/>
<path d="M134.738 34.0195V41.1595L139.388 38.5495V34.0195H134.738Z" fill="#F18D00"/>
<path d="M199.1 65.7593H203.74V58.7793L199.1 61.3993V65.7593Z" fill="#F18D00"/>
<path d="M211.53 34.0195C204.68 34.0195 199.1 39.5996 199.1 46.4496V58.7495L203.75 56.1295C205.88 57.8495 208.59 58.8795 211.53 58.8795C218.38 58.8795 223.96 53.2996 223.96 46.4496C223.96 39.5996 218.39 34.0195 211.53 34.0195ZM211.53 54.2296C207.24 54.2296 203.75 50.7396 203.75 46.4496C203.75 42.1596 207.24 38.6696 211.53 38.6696C215.82 38.6696 219.31 42.1596 219.31 46.4496C219.31 50.7396 215.82 54.2296 211.53 54.2296Z" fill="white"/>
<path d="M68.4388 61.7286C68.4388 63.4186 67.0588 64.7986 65.3688 64.7986H48.0889L42.7988 75.4386H61.3989C68.9589 75.4386 75.1088 69.2886 75.1088 61.7286V51.0586L68.4388 54.3786V61.7286Z" fill="#F18D00"/>
<path d="M68.4395 51.07L75.1194 47.76V29.5H68.4395V51.07Z" fill="#F18D00"/>
<path d="M75.1194 0.609375L68.4395 4.56938V18.8594H75.1194V0.609375Z" fill="#F18D00"/>
<path d="M75.1191 18.8594V29.4994H88.0792L93.3691 18.8594H75.1191Z" fill="#F18D00"/>
<path d="M55.4694 18.8594L50.1895 29.4994H68.4395V18.8594H55.4694Z" fill="#F18D00"/>
<path d="M75.1094 18.8594H68.4395V29.4994H75.1094V18.8594Z" fill="#EE7800"/>
<path d="M25.209 32.5694C25.209 30.8794 26.5891 29.4994 28.2791 29.4994H45.5591L50.849 18.8594H32.2491C24.6891 18.8594 18.5391 25.0094 18.5391 32.5694V43.2394L25.209 39.9194V32.5694Z" fill="#F18D00"/>
<path d="M25.209 43.2285L18.5391 46.5485V64.7985H25.209V43.2285Z" fill="#F18D00"/>
<path d="M18.5391 93.6995L25.209 89.7295V75.4395H18.5391V93.6995Z" fill="#F18D00"/>
<path d="M5.56931 64.7988L0.279297 75.4388H18.5393V64.7988H5.56931Z" fill="#F18D00"/>
<path d="M25.209 64.7988V75.4388H38.179L43.469 64.7988H25.209Z" fill="#F18D00"/>
<path d="M25.209 64.7988H18.5391V75.4388H25.209V64.7988Z" fill="#EE7800"/>
</svg>
