<svg width="512" height="513" viewBox="0 0 512 513" fill="none" xmlns="http://www.w3.org/2000/svg">
<path d="M493.248 193.471L331.435 31.6364C311.408 11.6682 284.281 0.455078 256 0.455078C227.72 0.455078 200.592 11.6682 180.566 31.6364L18.7523 193.471C12.788 199.397 8.05935 206.448 4.84042 214.215C1.62149 221.983 -0.0236885 230.311 0.000257696 238.719V448.148C0.000257696 465.122 6.7431 481.401 18.7454 493.403C30.7478 505.406 47.0264 512.148 64.0003 512.148C213.962 512.148 298.039 512.148 448 512.148C464.974 512.148 481.253 505.406 493.255 493.403C505.257 481.401 512 465.122 512 448.148V238.719C512.024 230.311 510.379 221.983 507.16 214.215C503.941 206.448 499.213 199.397 493.248 193.471ZM320 512.148H192C192 501 192 434.994 192 385.556C192 368.583 198.743 352.304 210.745 340.302C222.748 328.299 239.026 321.556 256 321.556C272.974 321.556 289.253 328.299 301.255 340.302C313.257 352.304 320 368.583 320 385.556V512.148Z" fill="#D1D6DC"/>
</svg>
