<svg width="161" height="139" viewBox="0 0 161 139" fill="none" xmlns="http://www.w3.org/2000/svg">
<path d="M150.951 137.246L120.496 132.396L80.497 138.765L40.4985 132.396L10.0434 137.246C5.03568 138.042 0.5 134.176 0.5 129.105V13.9049C0.5 9.85015 3.44437 6.39779 7.44962 5.76396L40.4985 0.5L80.497 6.86979L120.496 0.5L153.544 5.76396C157.545 6.40228 160.494 9.85465 160.494 13.9049V129.105C160.494 134.176 155.958 138.046 150.951 137.246Z" fill="#E2E5E8"/>
<path d="M40.502 0.5V132.396L80.5005 138.765V6.86979L40.502 0.5Z" fill="#D0D6DE"/>
<path d="M120.502 0.5V132.4L150.957 137.25C155.965 138.046 160.5 134.18 160.5 129.11V13.9049C160.5 9.85015 157.556 6.39779 153.551 5.76396L120.502 0.5Z" fill="#D0D6DE"/>
<path d="M7.00378 52.5011L7.63761 50.0512C8.52317 46.6303 11.7822 44.3781 15.2975 44.7602L24.4857 45.7582L31.4983 40.5752C33.5301 39.0737 36.3801 39.3794 38.0433 41.2809L41.7519 45.5199L44.3501 45.1828C45.9729 44.9715 47.4878 46.0369 47.8384 47.6372L49.6005 55.7422L55.0667 58.3584C55.0667 58.3584 43.496 64.2607 40.4213 71.7903C40.4213 71.7903 34.6719 68.1581 32.4018 72.6039C32.4018 72.6039 31.1971 75.5798 35.0765 76.9149C38.9558 78.25 41.3608 82.4441 41.3608 82.4441L43.4331 81.7383C47.1192 80.4886 51.1919 81.2798 54.1407 83.8196L61.9489 90.5445L58.5281 93.4035L59.8631 96.739C59.8631 96.739 49.1825 102.192 47.1821 111.645C47.1821 111.645 44.0669 116.653 44.5119 108.31C44.957 99.9666 46.2921 96.0737 43.2892 92.6258C41.2439 90.2748 40.8483 87.3079 40.8079 85.6537C40.7854 84.8176 40.3314 84.0668 39.6256 83.6218L32.7569 79.2569C31.0443 78.1691 29.5428 76.7755 28.3291 75.1482L23.6047 68.8144C21.9594 66.6072 21.2267 63.8516 21.5638 61.1185L22.0403 57.2301C22.355 54.6768 19.9365 52.6494 17.4777 53.3957L10.2448 55.5983C8.32538 56.1827 6.50931 54.4385 7.01277 52.4966L7.00378 52.5011Z" fill="#039C6A"/>
<path d="M39.4121 36.1203L40.9495 39.6266L47.1169 40.6336L54.6015 32.4882L39.4121 36.1203Z" fill="#039C6A"/>
<path d="M49.3912 43.7668C49.3912 43.7668 49.3912 39.5412 53.5088 39.1187C57.6265 38.6961 61.3215 37.2172 61.3215 37.2172C61.3215 37.2172 67.026 37.3835 67.8711 39.6221C68.7162 41.8608 65.8662 49.678 63.223 50.8378C60.5798 51.9976 56.8848 55.1668 56.8848 55.1668L54.1382 45.6638L49.3867 43.7623L49.3912 43.7668Z" fill="#039C6A"/>
<path d="M79.9428 84.0352C70.7006 87.1055 64.0837 72.6353 76.985 68.3243C83.6154 66.3868 83.9211 70.981 83.9211 70.981C89.9942 74.2401 95.1592 65.9193 87.1846 64.854C83.3367 68.0681 82.7029 64.7101 80.6486 62.9165C77.6413 64.8584 66.3583 69.0975 76.7782 62.2017C71.2311 55.1622 88.7715 61.9905 86.2676 49.8622C72.5212 65.6991 83.7997 33.3781 93.6128 48.8463C113.612 43.0294 114.138 39.2175 136.529 44.1578C146.432 44.5488 160.857 42.5529 145.942 57.8144C131.773 46.275 137.608 59.7833 134.928 67.3039C132.425 69.8797 132.434 67.6095 131.463 65.4653C126.217 64.9034 134.551 75.2425 128.199 75.8718C118.498 71.6193 133.409 84.5792 123.101 81.2752C114.61 68.4636 117.55 83.0553 110.016 79.7647C107.885 77.4901 101.92 67.2454 98.5126 70.055C98.5126 70.055 95.9638 71.7901 103.714 75.3594C98.1395 81.927 96.0492 78.5915 92.5924 72.5004C92.035 74.6491 95.5592 84.3949 98.7104 84.0937C90.592 104.934 84.1459 113.38 79.9428 84.0263V84.0352Z" fill="#039C6A"/>
<path d="M126.093 89.5104C125.427 89.0698 124.753 88.6203 124.214 88.0359C123.674 87.4515 123.265 86.7008 123.243 85.9007C123.234 85.5905 123.373 85.1994 123.679 85.1994C123.831 85.1994 123.966 85.3028 124.083 85.4062C124.393 85.6669 124.704 85.9321 124.973 86.2333C125.373 86.6784 125.679 87.1953 126.057 87.6583C126.398 88.0764 126.794 88.4495 127.221 88.7776C127.661 89.1148 128.147 89.3755 128.614 89.6767C128.92 89.8745 129.163 90.1397 128.799 90.4184C128.524 90.6297 128.106 90.7016 127.787 90.5533C127.194 90.2835 126.641 89.8745 126.097 89.5149L126.093 89.5104Z" fill="#039C6A"/>
<path d="M128.712 99.8677C128.694 99.0181 128.681 98.0471 129.306 97.4717C129.656 97.1481 130.142 97.0267 130.605 96.8918C131.257 96.703 131.926 96.4558 132.385 95.9568C132.677 95.6421 132.87 95.2421 133.185 94.9544C133.558 94.6127 134.057 94.4509 134.543 94.3026C135.123 94.1227 135.702 93.9429 136.287 93.7676C136.709 93.6373 137.145 93.5069 137.581 93.5608C138.687 93.6957 139.303 94.869 140.189 95.5432C140.566 95.8309 141.088 96.0332 141.519 95.822C141.681 95.741 141.816 95.6062 141.991 95.5612C142.301 95.4803 142.607 95.7051 142.845 95.9208C144.05 97.0222 145.043 98.3348 146.023 99.6384C146.208 99.8857 146.397 100.137 146.5 100.43C146.608 100.749 146.603 101.099 146.581 101.437C146.468 103.059 145.943 104.651 145.07 106.022C144.855 106.359 144.607 106.696 144.257 106.894C143.821 107.137 143.286 107.128 142.8 107.029C141.407 106.745 140.252 105.815 138.988 105.168C137.096 104.201 134.884 103.873 132.794 104.242C132.205 104.345 131.621 104.502 131.027 104.574C130.398 104.651 129.755 104.628 129.13 104.543C128.816 104.498 128.501 104.439 128.191 104.372C128.002 104.327 127.633 104.309 127.503 104.138C127.301 103.877 127.822 103.396 127.957 103.212C128.276 102.781 128.47 102.282 128.577 101.756C128.708 101.135 128.735 100.497 128.721 99.8677H128.712Z" fill="#039C6A"/>
<path d="M139.671 65.1957C139.554 65.3216 139.477 65.4834 139.41 65.6407C139.041 66.4679 138.673 67.2905 138.304 68.1176C138.111 68.5492 137.913 68.9897 137.589 69.3404C137.342 69.6101 137.009 69.8483 136.947 70.2124C136.87 70.6844 137.293 71.08 137.697 71.3318C137.868 71.4396 138.057 71.5475 138.259 71.5565C138.542 71.57 138.799 71.3947 139.023 71.2194C140.61 69.9787 141.833 68.284 142.507 66.387C142.642 66.0094 142.754 65.6138 142.75 65.2137C142.75 64.9125 142.687 64.481 142.417 64.2967C142.228 64.1663 141.999 64.2472 141.806 64.3191C141.505 64.4315 141.212 64.5214 140.902 64.6068C140.502 64.7147 139.958 64.8945 139.666 65.2047L139.671 65.1957Z" fill="#039C6A"/>
</svg>
