<svg width="264" height="94" viewBox="0 0 264 94" fill="none" xmlns="http://www.w3.org/2000/svg">
<path d="M231.929 48.5594V28.6094H227.279V48.5594C227.279 54.9894 232.509 60.2194 238.939 60.2194V55.5694C235.069 55.5694 231.929 52.4194 231.929 48.5594Z" fill="#040000"/>
<path d="M155.149 34.0801C148.299 34.0801 142.719 39.6601 142.719 46.5101C142.719 53.3601 148.299 58.9401 155.149 58.9401C157.959 58.9401 160.719 57.9701 162.909 56.2201C164.409 55.0201 165.589 53.5101 166.389 51.8201H160.829C160.579 52.0901 160.309 52.3501 160.009 52.5901C158.619 53.7001 156.939 54.2901 155.149 54.2901C151.669 54.2901 148.709 51.9901 147.719 48.8301H167.339C167.479 48.0701 167.569 47.3001 167.569 46.5101C167.569 39.6601 161.989 34.0801 155.139 34.0801H155.149ZM147.719 44.1901C148.709 41.0301 151.669 38.7301 155.149 38.7301C158.629 38.7301 161.589 41.0301 162.579 44.1901H147.729H147.719Z" fill="#040000"/>
<path d="M183.328 34.0801C176.478 34.0801 170.898 39.6601 170.898 46.5101C170.898 53.3601 176.478 58.9401 183.328 58.9401C186.138 58.9401 188.898 57.9701 191.088 56.2201C192.588 55.0201 193.768 53.5101 194.568 51.8201H189.008C188.758 52.0901 188.488 52.3501 188.188 52.5901C186.798 53.7001 185.118 54.2901 183.328 54.2901C179.848 54.2901 176.888 51.9901 175.898 48.8301H195.518C195.658 48.0701 195.748 47.3001 195.748 46.5101C195.748 39.6601 190.168 34.0801 183.318 34.0801H183.328ZM175.908 44.1901C176.898 41.0301 179.858 38.7301 183.338 38.7301C186.818 38.7301 189.778 41.0301 190.768 44.1901H175.918H175.908Z" fill="#040000"/>
<path d="M261.368 48.8301H263.458C263.598 48.0701 263.688 47.3001 263.688 46.5101C263.688 39.6601 258.108 34.0801 251.258 34.0801C244.408 34.0801 238.828 39.6601 238.828 46.5101C238.828 53.3601 244.408 58.9401 251.258 58.9401C254.068 58.9401 256.828 57.9701 259.018 56.2201C260.518 55.0201 261.698 53.5101 262.498 51.8201H256.938C256.688 52.0901 256.418 52.3501 256.118 52.5901C254.728 53.7001 253.048 54.2901 251.258 54.2901C247.778 54.2901 244.818 51.9901 243.828 48.8301H261.358H261.368ZM251.268 38.7301C254.748 38.7301 257.708 41.0301 258.698 44.1901H243.848C244.838 41.0301 247.798 38.7301 251.278 38.7301H251.268Z" fill="#040000"/>
<path d="M134.739 49.1101C134.739 51.9701 132.409 54.2901 129.559 54.2901C126.709 54.2901 124.379 51.9601 124.379 49.1101V34.0801H119.729V49.1101C119.729 51.9701 117.399 54.2901 114.549 54.2901C111.699 54.2901 109.369 51.9601 109.369 49.1101V34.0801H104.719V49.1101C104.719 54.5301 109.129 58.9401 114.549 58.9401C117.559 58.9401 120.249 57.5801 122.059 55.4401C123.869 57.5801 126.559 58.9401 129.569 58.9401C134.989 58.9401 139.399 54.5301 139.399 49.1101V41.2701L134.749 43.8901V49.1201L134.739 49.1101Z" fill="#040000"/>
<path d="M134.738 34.0801V41.2201L139.388 38.6101V34.0801H134.738Z" fill="#F18D00"/>
<path d="M199.1 65.8198H203.74V58.8398L199.1 61.4598V65.8198Z" fill="#F18D00"/>
<path d="M211.53 34.0801C204.68 34.0801 199.1 39.6601 199.1 46.5101V58.8101L203.75 56.1901C205.88 57.9101 208.59 58.9401 211.53 58.9401C218.38 58.9401 223.96 53.3601 223.96 46.5101C223.96 39.6601 218.39 34.0801 211.53 34.0801ZM211.53 54.2901C207.24 54.2901 203.75 50.8001 203.75 46.5101C203.75 42.2201 207.24 38.7301 211.53 38.7301C215.82 38.7301 219.31 42.2201 219.31 46.5101C219.31 50.8001 215.82 54.2901 211.53 54.2901Z" fill="#040000"/>
<path d="M68.4388 61.7891C68.4388 63.4791 67.0588 64.8591 65.3688 64.8591H48.0889L42.7988 75.4991H61.3989C68.9589 75.4991 75.1088 69.3491 75.1088 61.7891V51.1191L68.4388 54.4391V61.7891Z" fill="#F18D00"/>
<path d="M68.4395 51.1305L75.1194 47.8205V29.5605H68.4395V51.1305Z" fill="#F18D00"/>
<path d="M75.1194 0.669922L68.4395 4.62992V18.9199H75.1194V0.669922Z" fill="#F18D00"/>
<path d="M75.1191 18.9199V29.5599H88.0792L93.3691 18.9199H75.1191Z" fill="#F18D00"/>
<path d="M55.4694 18.9199L50.1895 29.5599H68.4395V18.9199H55.4694Z" fill="#F18D00"/>
<path d="M75.1094 18.9199H68.4395V29.5599H75.1094V18.9199Z" fill="#EE7800"/>
<path d="M25.209 32.6299C25.209 30.9399 26.5891 29.5599 28.2791 29.5599H45.5591L50.849 18.9199H32.2491C24.6891 18.9199 18.5391 25.0699 18.5391 32.6299V43.2999L25.209 39.9799V32.6299Z" fill="#F18D00"/>
<path d="M25.209 43.2891L18.5391 46.6091V64.8591H25.209V43.2891Z" fill="#F18D00"/>
<path d="M18.5391 93.76L25.209 89.79V75.5H18.5391V93.76Z" fill="#F18D00"/>
<path d="M5.56931 64.8594L0.279297 75.4994H18.5393V64.8594H5.56931Z" fill="#F18D00"/>
<path d="M25.209 64.8594V75.4994H38.179L43.469 64.8594H25.209Z" fill="#F18D00"/>
<path d="M25.209 64.8594H18.5391V75.4994H25.209V64.8594Z" fill="#EE7800"/>
</svg>
